<?xml version="1.0" encoding="utf-8"?>
<!-- Generator: Adobe Illustrator 26.0.3, SVG Export Plug-In . SVG Version: 6.00 Build 0)  -->
<svg version="1.1" id="Layer_1" xmlns="http://www.w3.org/2000/svg" xmlns:xlink="http://www.w3.org/1999/xlink" x="0px" y="0px"
	 viewBox="0 0 1366 768" style="enable-background:new 0 0 1366 768;" xml:space="preserve">
<g>
	<path d="M564,225.4c2.2-0.4,4.5-0.7,7.1-1.1c-1.2,3.9-2.3,7.2-3.4,10.6c-0.8,2.7-0.4,3.4,2.5,3c2.5-0.3,5.1-1,7.6-1.5
		c0.8-0.2,1.7-0.2,2.9-0.4c-0.4,1.3-0.6,2.2-0.9,3.1c-0.8,2.5-1.7,5.1-2.3,7.6c-0.1,0.6,0.4,1.7,0.9,1.9c0.5,0.2,1.5-0.4,2-0.9
		c0.4-0.4,0.6-1.2,0.8-1.8c1-3.1,1.9-6.2,3.1-9.2c0.4-0.9,1.4-1.8,2.4-2.1c2.2-0.7,4.5-1.3,6.7-1.6c2.8-0.4,6.1-2.4,8,1.9
		c-1,0.6-2,1.2-3.1,1.9c2,1.8,3.9,3.4,5.9,5.1c-1.2,1.1-2.2,2-3.6,3.4c2.8,1.2,5.2,2.1,7.4,3c-0.2,2.2-0.3,4.4-0.5,6.6
		c2.7-0.5,4.7-0.9,7-1.4c-0.5,2.9-1.2,5.6-1.3,8.4c-0.1,4.4-1.1,7.8-5.7,9.3c-1.6,0.5-1.9,1.8-1.4,3.5c0.4,1.4,0.6,2.9,0.9,4.3
		c-0.1,0-0.2,0.1-0.4,0.1c-0.4-1-0.7-2-1.1-3c-0.3,0-0.5,0-0.8,0.1c1.6,3.6-0.5,6.4-1.3,9.6c-2.2,8.4-4.3,16.7-6.5,25.4
		c2.1-0.8,3.7-1.5,5.4-2.2c0.1,0.2,0.1,0.3,0.2,0.5c-1.2,0.7-2.3,1.4-3.5,2c0.1,0.2,0.1,0.3,0.2,0.5c1-0.2,2-0.5,3.3-0.8
		c0,3.3-0.2,6.3,0,9.4c0.2,3.1,0.8,6.1,1.2,9.8c2.2-2.5,3.8-4.3,5.3-6.2c0.2,0.2,0.4,0.3,0.6,0.5c-1.4,1.9-2.8,3.7-4.5,6
		c2-0.3,3.4-0.5,4.8-0.7c0.3,12.4,0.9,16.3,3,18.2c0-1.7,0-3.3,0-4.8c0.1,0,0.2,0,0.3,0c1,3.7,2.1,7.5,3.1,11.2
		c-0.1,0-0.2,0.1-0.2,0.1c-0.7-1.4-1.5-2.8-2.2-4.2c-0.2,0.1-0.5,0.2-0.7,0.3c0.2,1,0.3,2,0.7,2.9c3.1,6.9,7.2,13.2,12.3,18.7
		c7.7,8.4,12.2,18.1,11.7,29.7c0,0.1,0.2,0.2,0.5,0.6c1.2-0.9,2.4-1.8,3.7-2.7c0.2,0.5,0.4,0.9,0.7,1.6c0.4-0.8,0.7-1.4,1.1-2.1
		c0.8,1.1,1,1.8,1.1,2.5c1,4.5,2.5,9,5.8,12.3c4.7,4.5,9.9,8.5,15,12.8c0.4-1.5,0.7-2.6,1.2-4.1c3.6,5.6,3.2,12.1,7.6,17.2
		c-0.1-1.7-0.2-2.8-0.2-4c2,1,1.4,4.9,4.9,3.6c3.9,5.9,8.2,11.6,9.4,19.1c2.2-7.2,6-13.2,10.1-19.1c3.3,1.5,2.6-2.7,4.8-3.2
		c0,0.9,0,1.8,0,3.3c4.4-5.2,3.9-12,7.6-17.2c0.3,1.5,0.5,2.7,0.7,3.9c9.9-6.8,20.1-13.3,21.4-27.3c1,0.9,1.5,1.3,1.9,1.7
		c0.4-0.5,0.6-0.8,0.8-1c1.3,1,2.5,1.8,3.8,2.8c0.2-0.7,0.3-1,0.3-1.2c-1.5-11.6,3.8-20.6,11.2-28.8c5.2-5.7,9.5-12,12.6-19.1
		c0.4-0.9,0.5-2,0.7-3c-0.3-0.1-0.6-0.2-0.9-0.2c-0.7,1.4-1.4,2.9-2.1,4.3c-0.1-0.1-0.2-0.1-0.4-0.2c1.1-3.7,2.2-7.3,3.2-11
		c0.2,0,0.4,0.1,0.6,0.1c0,1.4,0,2.7,0,4.1c0.2,0,0.5,0,0.7,0.1c0.6-3,1.4-6,1.7-9c0.3-3,0.1-6.1,0.1-9.3c1.6,0.3,2.9,0.5,4.9,0.9
		c-1.6-2.2-2.8-3.9-4.1-5.6c0.2-0.1,0.4-0.3,0.6-0.4c1.5,1.7,3,3.4,4.5,5.1c0.3,0,0.5-0.1,0.8-0.1c0.5-6.1,0.9-12.1,1.4-18.3
		c1,0.3,2,0.6,3,0.8c0.1-0.2,0.2-0.3,0.3-0.5c-1-0.7-2-1.4-3-2.1c0-0.1,0.1-0.2,0.1-0.3c1.6,0.6,3.2,1.2,4.9,1.9
		c-0.5-1.6-0.9-2.9-1.3-4.2c-1.8-7.3-3.6-14.7-5.5-22c-0.7-2.8-2.4-5.3-1.2-8.4c0-0.1-0.2-0.3-0.6-0.7c-0.4,1.1-0.8,1.9-1.1,2.8
		c-0.1-0.8,0-1.6,0.1-2.3c0.8-4.1,0.7-4.1-2.8-6.2c-1-0.6-2.5-1.4-2.7-2.3c-1.1-4.7-1.8-9.4-2.7-14.2c2.5,0.5,4.6,0.9,7.2,1.4
		c-0.2-2.3-0.4-4.5-0.6-6.4c2.4-1.1,4.7-2.1,7.3-3.2c-0.8-0.8-1-1.1-1.2-1.3c-2.2-1.4-1.8-2.7,0-4c1.2-0.9,2.3-2,3.7-3.1
		c-1.2-0.7-2.2-1.2-3.3-1.8c1.6-1.8,3-3.4,4.4-5c-3.6-3,1.4-4,0.9-6.3c-0.5-0.2-1.1-0.3-2.2-0.6c0-3.3,0.1-6.5,0-9.8
		c0-1.2-0.3-2.5-0.6-3.7c-0.4-1.9-0.9-3.8-1.3-5.6c-0.1-0.6,0-1.2-0.3-1.7c-1.3-2.1-0.7-4.1-0.1-6.3c1.6-5.8,3-11.7,4.5-17.6
		c0.2-0.6,0.2-1.3,0.1-2c-0.6-4.7-0.8-9.4,0.3-14.1c0.2-1.1,0.1-2.4-0.3-3.4c-1.1-3.1-2.6-6.1-1.9-9.6c0.1-0.8-0.6-1.7-0.8-2.6
		c-0.2-0.7-0.6-1.5-0.5-2.1c1-5.6-2.4-10.3-3-15.6c-0.2-1.9-1.1-3.8-1.2-5.7c-0.8-15.4-2.1-30.8-7.1-45.5
		c-2.4-7.2-5.4-14.2-10.4-20.1c-0.8-1-2-1.7-3-2.5c-0.5,1.4-0.5,2.4-0.3,3.4c1.6,8.9,2.9,17.8,4.8,26.5c4.9,22.5,3.7,44.7-3.7,66.5
		c-1.6,4.8-3.5,9.6-6.2,13.9c-4.6,7.2-10.3,8.8-17.2,3.7c-2.2-1.6-4.4-3.3-6.8-4.6c-2.3-1.1-3.1-2.3-1.9-4.7c1.2-2.6,2-5.3,3-8
		c0.6,0.3,0.8,0.3,0.9,0.4c0.8,1.1,1.6,2.1,2.4,3.2c2,2.8,2.3,2.8,4.9-0.1c-1.8-2.5-3.6-5.1-5.5-7.6c-1.1-1.4-1.4-2.7-0.5-4.3
		c0.9-1.9,1.6-3.9,2.4-5.7c-4.4-2.4-4.7,1.5-6.1,3.8c-1.7-2.2-3.2-4.2-4.7-6.1c-3,2.5-3,2.5-1.1,5.1c1,1.4,2.1,2.6,2.8,4.1
		c0.5,1.1,0.8,2.5,0.4,3.6c-1.2,3.5-2.7,6.8-4,10.2c-0.6,1.6-1.4,1.8-2.8,1.2c-2.4-1-4.8-1.9-7.3-2.6c-1.5-0.4-1.8-1.1-1.4-2.5
		c0.7-2.7,1.3-5.3,1.9-8c1-4.4,2.1-8.9,3.1-13.3c-3.4-1-3.8-0.8-4.5,2c-1.5,6.1-2.9,12.2-4.3,18.2c-0.3,1.5-0.7,2.7-2.7,2.2
		c-1.6-0.4-3.7,0.2-3.7-2.8c0.1-6.2,0-12.3-0.2-18.5c0-2.1-0.3-4.2-0.5-7c-6.5,4.8-9.6,11.5-14.5,16.6c-5.8-3.8-9.4-10.1-16.2-13
		c0,1-0.1,1.6,0,2.2c1.1,7.5,2.2,15,3.2,22.5c0.3,2.3-2.2,4.4-4.2,3.4c-2.3-1.1-4.4-2.5-6.9-4c2.7-2.9,4.9-5.5,7.4-8
		c1.4-1.4,1.3-2.4-0.3-3.6c-3.6-2.7-7.2-5.4-10.7-8.3c-1.7-1.4-2.8-1.2-4,0.5c-3.3,4.4-6.8,8.6-10.3,12.9c0-0.5,0-0.9-0.1-1.4
		c-0.2,0-0.4-0.1-0.6-0.1c-0.3,0.9-1,2.1-0.7,2.5c0.7,0.9,2,1.5,3,2.2c0.2-0.2,0.4-0.5,0.6-0.7c2.7,1.6,5.3,3.2,8,4.7
		c1.2,0.7,1.3,1.4,0.7,2.6c-1.9,3.5-3.7,7.1-5.4,10.7c-1.5,3.1-3.3,4-6.5,2.6c-3.8-1.5-6.8-3.9-8.4-7.8c-2.2-5.3-4.7-10.5-6.4-16
		c-6-19.3-7.2-38.9-3.3-58.8c2-10.3,3.8-20.6,5.6-31c0.2-0.9,0-1.8,0-3.5c-1.5,1.3-2.6,2-3.4,3c-4.5,5.4-7.4,11.7-9.7,18.2
		c-5.2,14.5-6.8,29.6-7.6,44.9c-0.2,3.2-0.2,6.3-1.8,9.2c-0.6,1.1-0.5,2.6-0.7,3.9c-0.1,0.8-0.2,1.7-0.5,2.4
		c-2.5,4.9-1.5,10.3-2.7,15.4c-0.3,1.2-0.2,2.6-0.8,3.8c-1.4,3.2-2.1,6.3-0.9,9.7c0.2,0.5,0.3,1.1,0.3,1.7c-0.2,3-0.5,6.1-0.5,9.1
		c0,1.5,0.5,3.1,0.8,4.6c0.2,0.9,0.7,1.7,0.9,2.6c1.1,4.6,2.1,9.2,3.1,13.8c0.2,1.2,0.3,2.4,0.2,3.6c-0.1,1.5-0.4,3-0.7,4.5
		c-0.1,0.8-0.1,1.8-0.6,2.4c-1.8,2.4-1.8,4.8-1.3,7.7c0.4,2.5-0.4,5.2-0.6,7.8c-0.7,0.3-1.3,0.5-2.2,0.8c1.1,1.6,2.2,3,3.4,4.8
		c-4.4,0.9-8.4,1.7-12.9,2.6c0.2-1.1,0.2-1.9,0.5-2.7c0.8-2.6,1.8-5.2,2.5-7.8c0.7-2.7-0.5-3.7-3.2-3.1c-3,0.6-6,1.1-9.4,1.7
		c0.2-1.3,0.3-2.1,0.5-2.8c0.8-2.5,1.8-4.9,2.4-7.4c0.2-0.7-0.6-1.6-1-2.4c-0.7,0.5-1.9,0.8-2.1,1.5c-1.2,3.2-2.2,6.4-3.3,9.7
		c-0.6,1.7-1.5,2.7-3.5,3c-3.7,0.5-7.3,1.4-10.9,2.4c-0.7,0.2-1.1,1.3-1.6,2c0.7,0.4,1.5,1,2.2,1C561.1,226.1,562.6,225.6,564,225.4
		z M609.6,287.3c0.4-0.7,1.2-1.2,1.9-1.5c6-2.8,12.1-5.5,18.1-8.2c0.3-0.2,0.8-0.1,1.1-0.2c0.2,0.2,0.4,0.4,0.5,0.6
		c-1.2,1.3-2.3,2.8-3.8,3.8c-4.6,3.3-9.2,6.4-13.9,9.6c0.1,0.2,0.3,0.5,0.4,0.7c3.2-1.7,6.4-3.4,9.6-5.1c0.1,0.2,0.2,0.3,0.3,0.5
		c-6.4,4.8-12.8,9.6-19.6,14.8C605.3,296.6,606.8,291.7,609.6,287.3z M718.6,273.4c-1.3,0.5-2.9,0.6-3.8-1.9c2.1,0.2,4,0.8,4.4-1.7
		c0-0.2,0.7-0.4,0.8-0.3c0.3,0.3,0.8,0.9,0.7,1.1C720.1,271.7,719.6,273,718.6,273.4z M706.5,274.8c-3.4,1.7-4.4,1.3-5.9-2.2
		c-0.8-1.9-1.3-4-1.9-6c0.2-0.2,0.5-0.3,0.7-0.5c5.2,2.3,9.5-0.1,13.6-2.6c4.2-2.4,8.1-5.2,12.2-7.8c1-0.6,2-1.1,3.1-1.6
		c4.3-1.9,6.4-0.1,8.7,3.9c0.6,1.1,0.9,2.4,1.5,4.3c-3.4-1.9-5.7-0.4-8.2,0.8C722.5,267,714.5,270.9,706.5,274.8z M703.1,283
		c2.2,4.2,2.1,9.1,6.3,11.8c-1.6-4.5-3.1-8.8-4.6-13c0.2-0.1,0.5-0.2,0.7-0.3c2.2,4.8,2.4,11,9.1,12.4c-3.4-2.1-4.9-5.4-5.6-9.3
		c1.2,1.6,2.3,3.2,3.5,4.8c0.1-0.1,0.3-0.1,0.4-0.2c-0.4-1-0.9-1.9-1.3-2.9c0.1-0.2,0.3-0.4,0.4-0.6c1.7,0.9,3.3,2,5.1,2.7
		c1.2,0.5,2.7,0.8,3.9,0.5c3.8-1.2,7.1-3.3,9.5-6.9c-2.7,1.4-5.1,2.7-7.6,3.9c-2.3,1.1-4.6,0.7-6.7-0.5c-0.6-0.3-0.9-1.1-1.3-1.7
		c0.6-0.3,1.2-0.8,1.9-0.8c4.7,0,8.6-1.8,11.6-5.4c0.2-0.2,0.3-0.4,0.4-0.6c0.1-0.1,0-0.3,0-0.9c-4.2,3.6-8.5,6.5-14.2,3.4
		c6.1-0.7,11.6-2.3,14.1-9.6c2.5,2.1,4.5,3.8,6.8,5.7c0.7-1.1,1.4-2.1,2.1-3.2c0.1,0,0.4,0,0.4,0.1c1.8,5.2,3.7,10.5,5.4,15.7
		c0.2,0.6-0.5,1.7-1.1,2.3c-4.1,4.4-8.3,8.7-12.5,12.9c-0.6,0.6-1.4,0.9-2.1,1.3c0.3,0.3,0.6,0.7,0.8,1c0.9-0.6,1.8-1.2,3.1-2
		c0,1.3,0.1,2.3,0,3.2c-0.3,3.3-1.5,4.4-4.7,3.8c-7.5-1.3-13.5-5.4-18-11.2c-2.4-3-4.1-6.6-5.7-10.1
		C702.1,287.5,701.9,285.4,703.1,283z M740.7,358.3c-0.6,0.6-1.1,1.1-1.7,1.7c-4.2,4-8.5,7.9-12.7,12c-1.2,1.2-2.2,1.2-3.4-0.3
		c0.4-0.7,0.9-1.4,1.4-2.2c-9.8,10.1-14.6,22.9-20,35.5c0.6-2.3,1.1-4.7,1.7-7c0.7-2.4,1.3-4.8,2.4-7.1c2.4-5.2,4.9-10.4,7.5-15.5
		c2.9-5.6,7.8-9.5,12.1-13.9c5.2-5.4,8.9-11.8,11.2-19c-2.1,2.4-4.2,4.8-6.3,7.2c-0.2-0.1-0.4-0.2-0.6-0.3c7-12.6,10-26.1,9-40.5
		c2.8,4.3,2.5,13.1-0.5,30c0.3-0.6,0.7-1.2,1-1.9c6.1-12.2,5.2-24.6,0.8-37.1c-0.3-0.8-0.7-1.8-0.5-2.6c0.5-2.4,2.4-3,4.4-1.5
		c4.8,3.6,9.4,7.4,12.8,12.5c2,3,3.2,6.2,3.3,9.8c0.2,15.8-6.1,29-17.2,39.9c-5.6,5.5-11.6,10.5-17.4,15.7c-0.5,0.5-1.2,0.8-2.4,1.6
		c5.8-5.6,11-10.7,16.2-15.8C741.5,359.2,741.1,358.8,740.7,358.3z M718.5,395.4c-2.6,3.8-5.1,7.7-7.7,11.5c-0.3-0.2-0.6-0.5-1-0.7
		c2.6-3.8,5.1-7.6,7.7-11.4C717.9,395,718.2,395.2,718.5,395.4z M711.7,312.8c2.1,3,3.8,6.2,5.6,9.3c0.4,0.7,0.5,1.7,0.8,2.5
		c-0.2,0.1-0.4,0.2-0.7,0.3c-1.3-2.4-2.5-4.8-3.8-7.2c-0.2,0.1-0.5,0.2-0.7,0.3c1,2.3,2,4.6,3,7c-0.1,0.3-0.3,0.5-0.4,0.8
		c-0.9-0.3-2.3-0.2-2.7-0.8c-2.7-4.1-5.3-8.4-7.9-12.7C708.7,309.2,709.2,309.2,711.7,312.8z M710.7,308.6c1.1-0.1,2.4-0.5,3.1-0.1
		c6,3.7,9.8,9.3,12.4,16.3c-2.2,0-3.9,0.1-5.7,0c-0.4,0-1-0.6-1.2-1c-1.9-5.3-4.9-9.8-8.4-14.1C710.8,309.5,710.8,309.3,710.7,308.6
		z M735.6,311.9c0-1.1-0.3-2.1-0.3-3.2c0-0.5,0.4-1.2,0.8-1.3c0.4-0.1,1,0.4,1.4,0.8c0.3,0.3,0.5,0.9,0.6,1.4
		c2.5,10.1-0.6,19.1-5.5,28.4c1.2-4.9,2.8-8.9,3.2-13.2C736.2,320.6,735.7,316.2,735.6,311.9z M707,316.8c-1,0.7-1.4,1-2.1,1.4
		c1.3,0.6,2.4,1.2,4.1,2c-1.2,0.4-1.7,0.5-2.4,0.7c4.4,3.1,4.4,3.1,5.1,5.4c-0.7,0.3-1.4,0.5-1.9,0.8c-1.9,0.9-3.1,0.6-4.1-1.5
		c-1.4-3.1-3.2-6.1-5.2-9.9C703,316.1,704.7,316.4,707,316.8z M705,326.5c0.3,0.6,0.1,1.4,0.1,2.1c-0.5-0.4-1.2-0.7-1.5-1.2
		c-1.5-2.9-3-5.9-4.4-8.9c-0.3-0.6-0.4-1.3-0.6-2c0.2-0.1,0.4-0.2,0.6-0.3c0.4,0.5,0.9,1,1.2,1.5C701.9,320.6,703.5,323.5,705,326.5
		z M701.6,358.3c-3.3-1.6-5.4-6.1-5.1-10.1c0.3-3.5,2.5-5.9,6.7-7.3C704.3,346.9,704.2,352.7,701.6,358.3z M703.1,329.2
		c-1.4,0.5-2.4,0.8-3.7,1.3c-1.3-3.8-2.7-7.4-3.8-11.1c-0.2-0.5,0.7-1.3,1.1-2c0.3,0.1,0.6,0.2,0.9,0.3
		C699.4,321.4,701.2,325.2,703.1,329.2z M697.8,330.1c0.1,0.2-0.5,0.9-0.8,1c-0.4,0.1-1.1-0.3-1.1-0.6c-0.9-3.5-1.7-7-2.6-10.4
		c0.4-0.1,0.8-0.3,1.2-0.4C695.6,323.1,696.7,326.6,697.8,330.1z M694.4,330.1c0.1,0.4-0.5,1.3-0.9,1.4c-0.5,0.1-1.5-0.2-1.6-0.5
		c-0.5-3-0.8-6-1.1-9.1c0-0.2,0.5-0.5,1.4-1.2C693.1,324.2,693.8,327.1,694.4,330.1z M699.6,333.2c1-0.2,2,0.3,3.1,0.7
		c0.1,0,0.3,0.1,0.4,0.1c-0.1,0.1-0.1,0.3-0.2,0.4c-0.1,0.1-0.1,0.3-0.2,0.4c-0.2,0.5-0.4,0.9-0.6,1.3c-0.2,0.4-0.5,0.8-0.8,1.1
		c-3.6,2.9-7.9,3.8-12.5,4.2c-3.2-0.8-6.4-1.5-9.5-2.6c-1.5-0.5-2.8-1.8-3.9-3c-0.4-0.4-0.5-1.6-0.3-2.2c0.2-0.5,1.2-0.7,1.9-0.8
		c0.7-0.1,1.5,0.1,2.2,0.2C686,334.4,692.8,334.5,699.6,333.2z M677,358.5c-3-4.4-3.7-13.9-1.5-17.8c3.1,1.5,5.8,3.3,6.1,7.1
		C681.8,352.1,680.3,355.6,677,358.5z M690.6,331.6c-1.1,0-2.1,0-3.4,0c0.3-3,0.6-5.8,1-8.7C690.1,323.4,691,327,690.6,331.6z
		 M686.2,330.4c-0.1,0.5-1,1.1-1.5,1.1c-0.4,0-1.3-0.9-1.2-1.3c0.6-3.1,1.4-6.1,2.1-9.1c0.3,0,0.6,0,0.9,0c0.3,0.6,0.8,1.3,0.8,1.9
		C687.1,325.5,686.7,328,686.2,330.4z M684.5,321.8c-0.6,2.6-1.2,5.2-1.9,7.7c-0.2,0.6-1.1,1-1.7,1.5c-0.2-0.7-0.6-1.5-0.5-2.1
		c1-3.2,2.1-6.3,3.2-9.5c0.3,0.1,0.7,0.2,1,0.3C684.7,320.4,684.7,321.1,684.5,321.8z M682.6,319.3c-1.1,3.7-2.5,7.3-3.9,11.2
		c-1.3-0.4-2.4-0.8-3.8-1.3c2-4.1,3.8-7.8,6-12.3C681.6,318,682.7,318.8,682.6,319.3z M679.3,317.7c-1.6,3.3-3.1,6.6-4.8,9.8
		c-0.2,0.4-0.7,0.6-1.1,0.9c-0.2,0.1-0.3,0.2-0.4,0.3c0-0.4-0.1-0.7-0.1-1.1c0-0.1,0-0.2,0-0.3c0-0.1,0-0.3,0.1-0.4
		c1.6-3.2,3.4-6.4,5.1-9.6c0.2-0.4,0.7-0.8,1.5-1.7C679.4,316.7,679.5,317.2,679.3,317.7z M675.3,319.9c-1,1.9-2.2,3.7-3,5.7
		c-0.9,2.2-2.2,2.4-4.1,1.5c-0.7-0.3-1.4-0.5-2-0.8c-0.1-0.3-0.3-0.6-0.4-0.9c1.6-1.5,3.3-3.1,4.9-4.6c-0.2,0-0.7-0.1-1.1-0.2
		c-0.1-0.2-0.2-0.4-0.3-0.5c1.2-0.6,2.4-1.2,3.8-2c-0.5-0.3-1-0.5-2.3-1.1c2.4-0.6,4.2-1,6.8-1.5
		C676.5,317.4,675.9,318.7,675.3,319.9z M664.5,317.5c-1.3,2.5-2.6,5-3.9,7.5c-0.2-0.1-0.4-0.2-0.7-0.3c0.2-0.7,0.2-1.5,0.6-2.1
		c2-3.5,3.8-7,6.1-10.2c2.4-3.4,3.4-3.3,6.6-0.2c-2.6,4.3-5.2,8.6-8,12.9c-0.3,0.5-1.4,0.4-2.1,0.6c-0.2-0.7-0.6-1.5-0.4-2
		c0.7-2,1.7-3.8,2.6-5.7C665,317.8,664.7,317.7,664.5,317.5z M659.3,322.7c-0.6,1.5-1.1,2.2-2.8,2c-1.4-0.2-2.8,0-5,0
		c2-3.5,3.6-6.8,5.7-9.7c1.8-2.4,4.1-4.3,6.4-6.2c1.7-1.4,1.9-1.2,3.9,0.4c-1.7,2.3-3.5,4.6-5,7.1
		C661.2,318.3,660.2,320.5,659.3,322.7z M672,274.8c-8.4-4.1-16.7-8.2-25.1-12.2c-2-1-4.4-1.2-7.1-2c1.2-2.1,2.4-4.6,4-6.9
		c0.4-0.6,2.3-0.8,3.2-0.5c3.7,1.7,7.4,3.6,11,5.6c2.4,1.3,4.5,3.1,6.9,4.5c5.9,3.5,7.5,3.8,14,2.8c0.1,3.2-1,6-2.8,8.5
		C674.9,276.3,673.3,275.4,672,274.8z M640.6,272.1c0.7,1.1,1.4,2.2,2.2,3.4c1.8-1.6,3.4-3.1,5-4.4c0.9-0.7,1.8-1,2.4,0.4
		c2.3,5.3,6.7,7.1,12.1,7.2c0.4,0,0.9,0.3,1.2,0.8c-5.6,3.1-9.9,0-14.2-3.3c2.5,4.4,6.3,6.3,11.1,6.8c1,0.1,1.9,0.5,2.9,0.8
		c-0.9,0.8-1.6,1.8-2.7,2.2c-3.4,1.3-6.3-0.3-9.2-1.9c-1.2-0.7-2.3-1.6-3.5-2.2c2.5,4.2,6.5,6.4,11.1,7.5c0.7,0.2,1.6-0.6,2.4-1.1
		c1.6-0.8,3.1-1.7,4.7-2.6c0.2,0.2,0.4,0.4,0.6,0.6c-0.7,1.1-1.4,2.3-2.1,3.4c0.2,0.1,0.3,0.2,0.5,0.4c1.6-2.2,3.1-4.3,4.5-6.2
		c-0.6,4.1-1.9,6-7.5,10.6c7.9-0.9,8.2-7.8,10.6-13c0.2,0.1,0.4,0.2,0.7,0.2c-1.6,4.3-3.1,8.7-4.7,13c2.3-0.7,3-2.9,3.8-5
		c0.8-2,1.5-4.2,2.2-6.2c0.3,0,0.5,0,0.8,0.1c0,1.3,0.2,2.7,0,3.9c-2,8.9-7.7,15.2-15.2,19.9c-2.4,1.5-5.3,2.6-8,3.3
		c-4.1,1.1-5.5-0.2-5.7-4.4c0-0.7,0-1.4,0-2.6c1.2,0.8,2.1,1.4,3,2c0.1-0.1,0.2-0.2,0.4-0.3c-0.4-0.4-0.7-0.9-1.1-1.3
		c-4.3-4.4-8.5-8.9-12.9-13.3c-1.1-1.1-1.5-2.3-1-3.8c1.6-4.9,3.2-9.8,4.8-14.6C640,272.1,640.3,272.1,640.6,272.1z M643.2,329.5
		c0.5,1.9,1.1,3.8,1.7,5.7c-0.2,0.1-0.4,0.2-0.7,0.2c-3-5.5-4.8-11.4-5-17.7c-0.1-2.8,0.4-5.6,0.9-8.4c0.2-0.8,1.2-1.5,1.9-2.2
		c0.3,0.9,0.9,2,0.7,2.8C641.5,316.5,641.5,323,643.2,329.5z M635.9,299.1c-1.4,5.5-2.9,11.1-3.7,16.8c-1.1,8.2,1.3,15.8,5.3,23
		c-2.7-10.1-3.9-20.2-0.8-30.5c-0.9,14.8,2.2,28.6,9.2,41.9c-1.1-1.2-2.3-2.3-3.4-3.6c-1.1-1.2-2.1-2.6-3.6-3.7
		c0.3,0.9,0.5,1.7,0.8,2.6c3.3,7.4,7.8,13.9,13.9,19.3c8.4,7.5,13,17.4,16.8,27.7c1.1,3,1.9,6,2.7,9.1c0.2,0.7,0.2,1.4,0.1,2.1
		c-5.1-12-9.7-24.1-18.8-33.8c0.2,0.4,0.7,0.8,0.7,1.2c0,0.7-0.2,1.5-0.3,2.2c-0.6-0.2-1.4-0.2-1.9-0.6c-3.7-3.3-7.4-6.7-11.1-10.1
		c-0.4-0.3-0.7-0.7-1.2-0.9c5.5,8,14.9,12.5,19.9,22c-0.8-0.6-1.2-0.7-1.4-1c-7.9-7.5-15.7-15.1-23.9-22.4
		c-11.2-10-17.9-22.1-19.7-37c-1-8.3,1.7-15.1,7.6-20.7c2.7-2.5,5.5-4.8,8.4-7.1c0.7-0.5,2.2-1,2.7-0.7
		C635.6,296,636.4,297.2,635.9,299.1z M668.2,406.2c-0.3,0.2-0.6,0.4-0.9,0.6c-2.7-4-5.4-7.9-8-11.9c0.3-0.2,0.6-0.4,0.9-0.7
		C662.8,398.2,665.5,402.2,668.2,406.2z M608.4,317.6c-2.4-11.8,6.7-22.8,20.2-28.8c-3.1,2.7-6.2,5.4-9.2,8.2
		c0.2,0.3,0.5,0.5,0.7,0.8c2.1-1.5,4.1-3.1,6.2-4.6c0.2,0.2,0.4,0.4,0.6,0.6c-1.4,1.3-2.8,2.6-4.3,3.9c-1.5,1.3-3.1,2.6-4.6,3.8
		c0.2,0.3,0.4,0.6,0.7,0.8c1.6-1.2,3.3-2.4,5.1-3.8C618.4,304.9,613.4,311.2,608.4,317.6z M631.9,369.3c-0.8-0.3-1.9-0.3-2.2-0.8
		c-2.9-4.7-5.7-9.4-8.6-14.2c0.3-0.2,0.6-0.4,0.9-0.6c3.5,4.9,7.1,9.7,10.6,14.6C632.4,368.7,632.2,369,631.9,369.3z M641.6,392.6
		c0,0.2-0.2,0.4-0.3,0.7c-0.7-3.7-1.3-7.4-2.2-11c-2.1-7.9-5.7-15-10.7-21.5c-3.5-4.5-6.8-9.3-9.8-14.2c-1.7-2.8-2.6-6-3.9-9
		c0.2-0.1,0.4-0.2,0.7-0.3c0.2,0.2,0.4,0.5,0.5,0.7c3.3,8.3,9,15.1,14.3,22.2c6.8,9.1,10.8,19.5,11.4,31
		C641.7,391.6,641.7,392.1,641.6,392.6z M661.6,415.5c-1.9-2.2-3.8-4.4-5.6-6.6c-0.9-1.2-1.8-2.4-2.7-3.6c-0.9-1.2-1.7-2.4-2.6-3.6
		v0l0,0c0,0.4,0,0.8,0.1,1.2c0,0.2,0.1,0.4,0.1,0.7c0.1,0.7,0.4,1.4,0.7,2.2c1.1,2.7,3.2,6.2,6.9,11.8c-0.7-0.5-1.4-1-2.1-1.6
		c-5.8-5-8.4-11.6-9.6-18.9c-1.3-7.8-3-15.5-4.6-23.2c-0.1-0.5-0.1-0.9-0.1-1.4c0.2,0,0.4-0.1,0.6-0.1c2.8,7.3,5.2,14.7,8.5,21.8
		c3.3,7.1,7.4,13.9,11.2,20.8C662.1,415.1,661.8,415.3,661.6,415.5z M657.4,395.5c0.3-0.1,0.5-0.3,0.8-0.4
		c5.8,8.7,11.9,17.3,17.4,26.3c1.9,3.1,2.3,7,2.9,10.7C671.4,419.9,664.4,407.7,657.4,395.5z M694.9,405.2
		c1.5-11.5,5.1-22.4,8.9-33.2c-5.4,11.9-14,30.5-14.7,69.8c-1.2-21.7-2.9-43.3-12.4-63.4c1.4,4.7,2.9,9.3,4.1,14
		c1.2,4.8,2.2,9.7,2.9,14.6c-7.4-15.5-12.2-32.3-22.4-46.5c0.2-0.1,0.5-0.3,0.7-0.4c2.1,1.5,4.2,3,6.7,4.8c-0.6-2-1.4-3.4-1.2-4.7
		c0.2-1.1,0.9-3,3.2-1.7c0-4,0-7.8,0-11.7c0.2,0,0.4,0,0.6,0c0.4,2.2,0.6,4.5,1.3,6.6c0.6,2.1,1.6,4.2,2.5,6.2
		c0.7,1.6,1.7,1.8,3.1,0.4c3.8-3.9,6.5-8.3,6.6-13.8c0-1.9,0.6-2.7,2.6-2.4c1.7,0.2,3.5,0.1,5.4,0.1c0.2,1.6,0.4,3,0.6,4.5
		c0.7,4.6,3.1,8.4,6.3,11.7c1.4,1.4,2.5,1.4,3.2-0.4c1.6-4.1,3-8.4,4.3-12.2c0,3.3,0,7.3,0,12c1-1.4,1.4-2.1,2.1-3
		c1,1.2,3.4,1.5,2.5,3.7c-0.6,1.5-1.8,2.7-2.7,4.1c0.2,0.2,0.3,0.4,0.5,0.6c2.1-1.5,4.2-2.9,6.1-4.2
		C715.8,360.2,694.9,405.2,694.9,405.2z M699.6,431.7c0.5-5.9,2.8-11.7,6.5-16.9c4.2-6,8.5-11.9,12.7-17.9c0.7-1,1.2-2.2,1.8-3.2
		c0.2,0.1,0.4,0.2,0.7,0.3c-1.3,2.7-2.4,5.6-3.9,8.1C711.4,412.1,705.4,422,699.6,431.7z M735.4,375.6c-1.6,8.3-3.2,16.7-4.8,25
		c-1.4,7.1-5.1,12.7-11.1,16.8c3.4-4.6,6.4-9.3,7.7-15.1c-3.5,4.4-7,8.8-10.5,13.1c-0.3-0.2-0.6-0.4-1-0.6
		c3.8-6.9,7.9-13.7,11.1-20.8c3.3-7.1,5.7-14.5,8.4-21.8c0.2,0.1,0.5,0.1,0.7,0.2C735.9,373.5,735.6,374.5,735.4,375.6z
		 M748.2,368.9c-0.3,0.4-1.1,0.5-1.7,0.8c-0.1-0.7-0.4-1.6-0.1-2c3.3-4.8,6.6-9.4,10-14.2c0.3,0.2,0.6,0.4,0.9,0.6
		C754.2,359,751.2,363.9,748.2,368.9z M760.1,345.3c-3.5,5.6-7.3,11.1-11.2,16.5c-6.5,9-10.4,18.9-11.7,29.9c0,0.3-0.1,0.6-0.2,0.9
		c-0.8-7.1,1.3-13.7,3.9-20.1c2.6-6.3,6.4-11.8,10.5-17.2c4.3-5.6,7.8-11.7,11.6-17.5C762.1,340.2,761.5,343,760.1,345.3z
		 M769.9,317.8c-5.1-6.5-10.1-12.7-15-18.9c1.5,1.2,3.1,2.4,4.7,3.6c0.2-0.2,0.4-0.3,0.6-0.5c-0.8-0.9-1.6-1.9-2.4-2.8
		c-1-0.9-2.1-1.7-3.1-2.5c-1-0.9-2-1.8-3-2.7c0.2-0.2,0.3-0.4,0.5-0.5c2,1.6,4.1,3.2,6.1,4.8c-1.4-4.4-5.8-6-8.2-9.4
		c6.1,3.1,11.7,6.9,15.8,12.5C769.2,306.1,770.7,311.6,769.9,317.8z M766.3,285.8c1.1,0.5,2.2,1.6,2.8,2.7c2.3,4.1,3.8,8.4,4.4,13.7
		c-6.6-4.9-12.7-9.6-18.8-14.2c0.1-0.2,0.2-0.3,0.3-0.5c3,1.6,6,3.2,9,4.7c0.1-0.1,0.2-0.2,0.3-0.3c-0.7-0.7-1.3-1.4-2.1-2
		c-3.9-2.7-7.8-5.4-11.6-8.1c-1.4-1-2.5-2.4-3.8-3.6c0.2-0.2,0.3-0.4,0.5-0.7c0.5,0.1,1.1,0.1,1.5,0.3
		C754.6,280.5,760.5,283.1,766.3,285.8z M774.4,140.4c0.9,3.4,0.2,6.4-0.8,9.6c2.4,0.3,2,2.1,1.7,3.7c-0.3,1.9-0.8,3.7-1.3,5.6
		c3.2-0.5,3.9,0.3,2.9,3.4c-0.8,2.4-2,4.7-3.1,7.1c0,0,0.2,0.2,0.3,0.2c1-0.1,2-0.2,2.9-0.3c-0.1,1,0,2.2-0.4,3.1
		c-0.8,1.7-1.9,3.3-3,5.1c1.1,0.1,2.2,0.3,4,0.5c-1.7,2.2-3.1,3.9-4.7,6c1.2-0.3,2-0.4,2.9-0.6c0.1,0.2,0.2,0.4,0.4,0.6
		c-3,3.9-7.6,5.9-11.2,9.2C761,184.8,767.7,146.9,774.4,140.4z M772.1,133.7c0.2,0,0.4,0,0.7,0c0,1.8,0,3.6,0,5.4
		c-0.4,0-0.8-0.1-1.1-0.1C771.8,137.3,772,135.5,772.1,133.7z M704.6,166.3c0.1-1.2,0.8-2.6,1.6-3.5c0.5-0.6,1.8-1.1,2.5-0.8
		c15.9,5.4,28.7,14.6,35.2,30.8c1.2,2.9,1.4,6.1,2.3,9.7c-0.9,2.5-1.6,5.5-2.9,8c-1.9,3.5-5.3,4.4-8.4,2.1
		c-5.4-4-10.7-8.2-15.5-12.8c-3.7-3.6-7.4-7.6-9.9-12.1C705.8,181.1,704,173.9,704.6,166.3z M704.1,237.2c0.9-2.9,4.3-4.8,7.6-4.1
		c3.1,0.6,5.1,3.2,4.7,6.4c-0.3,3.5-4.3,5.7-7.3,3.9c-1.6-1-2-2.4-1.1-4.1c0.8-1.3,1.9-1.8,3.4-0.4c-0.4,0.2-0.8,0.3-1,0.5
		c-0.5,0.5-1,1-1.5,1.5c0.6,0.5,1.2,1.6,1.7,1.5c1.3-0.3,3.3-0.7,3.7-1.6c0.6-1.2,0.4-3.3-0.2-4.6c-1-2-4-2.4-6.3-1.4
		c-2,0.8-3.2,3-2.8,5.3c0.6,4.1,3.9,6.8,8.4,6.5c5.3-0.4,10.2-2.4,14.8-5c7.8-4.5,14.2-10.3,19.1-18c5.8-9.1,6.1-19,3.3-28.7
		c-2.4-8.3-1.3-15.6,1.7-23.3c3.4-8.8,6.8-17.8,9-26.9c5-20.4,5.2-41.1,0.4-61.6c-1.3-5.7-2.5-11.3-3.8-17c0.2-0.1,0.5-0.1,0.7-0.2
		c10.5,23.9,13.4,48.8,8.7,74.6c0.3-0.5,0.6-1.1,0.9-1.6c0.1,0,0.3,0.1,0.4,0.1c-0.9,3.2-1.9,6.3-2.8,9.5c-0.2,0.7,0.1,1.5,0.2,2.2
		c0.3,0,0.6,0.1,0.9,0.1c-1.1,2.4-2.2,4.8-3.3,7.4c0.4,0.1,0.8,0.2,1.5,0.4c-0.9,1.9-1.8,3.7-2.8,5.8c0.4,0.1,0.8,0.1,1.6,0.2
		c-0.9,1.7-1.8,3.3-2.8,5.1c0.6-0.1,1-0.2,2.1-0.3c-1.1,1.7-2,3-3,4.4c0.6,0.1,1.1,0.1,1.7,0.2c0.2,3-0.7,5.2-2.5,6.7
		c-0.2,0.2-0.4,0.3-0.7,0.5c-0.2,0.1-0.4,0.2-0.6,0.4c-0.5,0.2-0.9,0.4-1.5,0.6c-0.5,0.2-1.1,0.3-1.7,0.4c1.9,1.2,2.2,1.2,6.3-1.1
		c2.2,4.9-0.3,9-6.8,10.9c3,1.9,5-0.2,7.3-1.6c0.2,0.1,0.4,0.3,0.6,0.4c-0.8,2-1.7,3.9-2.6,6.1c0.9-0.7,1.8-1.3,2.6-1.9
		c0.2,0.1,0.4,0.3,0.6,0.4c-1,1.5-2,2.9-3,4.4c1,0.4,2.2,0.9,3.8,1.6c-1.2,0.8-2,1.4-2.9,2c0.6,0.7,1.1,1.3,1.9,2.3
		c-1.5,0.3-2.7,0.5-4,0.8c0.6,1.2,1.2,2.5,2.1,4.4c-1.8-0.7-2.9-1.1-4.3-1.6c0.4,1.2,0.6,2.1,1,3.4c-1.3-0.2-2.2-0.4-3.4-0.6
		c-0.5,1.8-1.1,3.5-1.3,5.3c-0.3,2.8-1.7,4.7-3.4,6.8c-6.1,7.2-12.6,13.8-20.9,18.3c-3.5,1.9-7.4,3.6-11.3,4.6
		c-2.6,0.7-5.6,0.4-8.3-0.2C705.1,246.2,702.9,241.4,704.1,237.2z M699.7,158c-1.9,30,0.3,59.7,1.3,89.3c0.2,5.2,1.6,6.5,6.8,6.2
		c8-0.5,15.2-3.5,22.2-7.2c8.9-4.7,16.6-11,22.5-19.4c1.2-1.6,2.3-3.8,4.8-3.4c2.6,0.4,3.2,2.9,3.7,4.8c0.4,1.7,0.5,3.9-0.2,5.5
		c-3.5,7.5-8.4,13.9-15,19c-3.9,3-6.1,2.9-9.6-0.5c-3.4-3.2-5.1-3.2-9-0.8c-5.7,3.5-11.6,6.9-17.4,10.3c-0.6,0.3-1.2,0.5-1.9,0.7
		c-4.1,1.4-8.1,1.8-11.7-2.1c-0.2,0.7-0.3,1-0.3,1.4c-0.2,11.8-0.3,23.7,1.6,35.4c0.7,3.9,2,7.7,3.4,11.4c0.5,1.5,0.4,2.2-0.9,3.1
		c-3.2,2-6.2,4.2-9.4,6.1c-0.8,0.5-2.3,0.5-3,0c-3.3-2-6.4-4.2-9.6-6.3c-1.2-0.8-1.5-1.6-0.8-2.9c2.5-4.7,3.7-9.9,4-15.1
		c0.6-10.6,0.8-21.1,1.1-31.7c0-0.4-0.1-0.8-0.2-1.4c-1.3,0.8-2.4,1.7-3.6,2.2c-3.3,1.3-6.5,0.6-9.4-0.9c-5.5-2.8-10.7-6-16.1-9.1
		c-0.9-0.5-1.6-1.1-2.5-1.7c-3.3-2.1-4.9-2.1-7.8,0.4c-5,4.2-6.7,4.3-11.7,0c-5.9-5-10.3-11-13.7-18c-1.4-2.9-0.3-7.6,2.3-9.5
		c1.4-1.1,2.8-1.2,4,0.2c1,1,1.9,2.1,2.7,3.3c10.4,13.7,24.2,21.8,40.8,25.5c1.7,0.4,3.5,0.4,5.2,0.3c3.2-0.1,4.5-1.3,4.7-4.6
		c0.4-7.6,0.9-15.1,1-22.7c0.4-19.2,0.8-38.5,1-57.7c0-3.4-0.6-6.7-1-10.5C685.4,156.6,692.8,156.9,699.7,158z M684.2,146
		c2-2.8,4.1-5.5,6.2-8.3c0.3,0.1,0.5,0.1,0.8,0.2c0,4.6,0,9.2,0,14.5c-2.6-1.8-4.9-3.4-7.1-5.1C683.9,147.1,684,146.3,684.2,146z
		 M680.4,151.2c0.3-0.3,1.3-0.4,1.7-0.1c1.6,1,3.1,2.2,5.3,3.7c-3.6,0.3-6.5,0.6-10.1,0.9C678.5,153.8,679.4,152.4,680.4,151.2z
		 M671.1,141.5c2,1.8,4,3.6,5.9,5.5c0.3,0.3,0.4,1,0.2,1.3c-1.3,2-2.7,3.8-4,5.7c-0.2-0.1-0.5-0.1-0.7-0.2c-0.6-4-1.3-8-1.9-12
		C670.8,141.8,671,141.7,671.1,141.5z M645.7,148.5c-0.4-0.3-0.7-1.6-0.4-2.1c1.4-2.1,3-4.2,4.7-6.1c0.4-0.4,1.6-0.7,2-0.5
		c2.4,1.7,4.7,3.6,7.2,5.5c-2.1,2.4-3.7,4.4-5.6,6.3c-0.4,0.4-1.7,0.6-2.3,0.3C649.4,151.1,647.5,149.9,645.7,148.5z M652.9,159.9
		c0.2-0.3,1.2-0.4,1.7-0.2c1.1,0.5,2.1,1.3,3.5,2.3c-3.1,1.8-5.6,3.2-8.1,4.7c-0.2-0.1-0.4-0.3-0.5-0.4
		C650.5,164.2,651.6,162,652.9,159.9z M641.8,179.6c7.3-8.3,16.3-14.1,26.7-17.7c4.6-1.5,5.9-0.8,6.9,4c1.1,4.9,0.1,9.1-2.9,13.3
		c-5.7,8.2-13.2,14.7-19.4,22.4c-2,2.5-3.9,5.2-5.5,8c-2.6,4.7-9.2,5.5-12.5,1.3c-2.2-2.8-2.9-6.1-2.9-9.8
		C632.8,193,636.3,185.9,641.8,179.6z M616.2,73.7c0.9-2.6,2.1-5.2,3.2-7.7c0.2,0.1,0.5,0.2,0.7,0.2c-0.9,4.2-1.8,8.4-2.8,12.6
		c-4.8,18.8-5.4,37.9-2.4,57c1.8,11.8,5.7,22.9,10.1,33.9c1.2,2.9,2.1,5.8,3.2,8.7c1.6,4.4,1.4,8.8,0.1,13.2
		c-3.6,12.2-3.6,24,4.5,34.7c4.5,6,9.9,11.1,16.5,14.6c4.4,2.3,9.3,4.1,14.2,5.3c4.7,1.2,8.3-1.2,9.4-5.2c0.6-2.1,0.4-4.3-1.4-5.4
		c-1.6-0.9-3.8-1.3-5.5-1c-1.2,0.2-2.5,2-2.9,3.3c-0.3,1.1,0.5,2.8,1.4,3.7c0.7,0.7,2.3,0.6,3.5,0.5c0.4,0,1.1-1.1,1.1-1.7
		c-0.1-0.9-0.6-1.9-0.9-2.8c0.6-0.2,1.6,0.5,2.2,2c0.7,1.6-0.4,3.4-2.1,3.9c-2,0.5-3.8,0.1-5.3-1.4c-1.5-1.7-1.6-3.6-0.8-5.6
		c0.8-2.1,2.5-3.3,4.8-3.5c3.6-0.4,6.5,1.4,7.2,4.3c1,4-0.9,8.1-4.4,9.7c-3.5,1.5-7,1.3-10.5,0.2c-10.2-3.4-18.6-9.5-25.9-17.3
		c-0.7-0.8-1.4-1.7-2.2-2.4c-4.1-3.8-6.6-8.3-6.9-13.9c0-0.4-0.2-0.8-0.4-1.2c-1,0.2-1.9,0.4-3.3,0.7c0.4-1.3,0.6-2.2,0.9-3.3
		c-1.3,0.5-2.3,0.8-4.1,1.5c0.8-1.8,1.4-2.9,2-4.3c-1.3-0.3-2.6-0.5-4.3-0.9c1-0.9,1.6-1.4,2.5-2.2c-0.9-0.6-1.8-1.1-3.1-2
		c1.5-0.7,2.6-1.2,3.7-1.7c-1-1.5-2-3-3-4.4c0.2-0.1,0.4-0.3,0.6-0.4c0.9,0.7,1.8,1.3,2.9,2.1c-1-2.2-2-4.3-2.9-6.3
		c0.2-0.1,0.4-0.3,0.6-0.4c2.2,1.2,4.2,3.4,7.2,1.6c-6.6-2.5-8.1-4.9-6.9-10.9c2.1,0.5,4,2.9,6.3,1.5c-1.7-1-3.7-1.6-4.9-3
		c-1.2-1.5-1.6-3.7-2.5-5.9c1.2,0,1.8,0,2.6,0c-1.1-1.5-2-2.8-3.2-4.4c1,0,1.5,0,2.1,0c-0.9-1.7-1.8-3.2-2.7-4.9
		c0.7-0.1,1.1-0.2,1.4-0.2c0-2.3-3.3-3.9-1.4-6.9c-0.5-0.9-1.3-2.2-1.7-3.6c-0.4-1.2-2.3-2.6,0-3.9c0.1-0.1,0.1-0.7-0.1-0.9
		c-2.8-5.5-1.6-11.6-2.5-17.3C606.7,111.9,609.6,92.6,616.2,73.7z M605.8,133.8c0.2,1.7,0.4,3.4,0.6,5.1c-0.3,0-0.6,0.1-0.8,0.1
		C604.2,137.5,604.9,135.7,605.8,133.8z M601.1,178.2c0.8-0.1,1.7-0.3,2.5-0.4c0.2,0,0.5,0,0.9,0c-1.1-1.7-2.3-3.2-3.1-4.9
		c-0.5-1-0.4-2.3-0.6-3.5c1.1,0,2.1,0,3.3,0c-0.8-1.5-1.6-3.1-2.3-4.8c-0.4-0.9-0.8-1.9-0.9-2.8c-0.1-0.9,0-2.1,0.4-2.8
		c0.2-0.3,1.6,0.1,2.7,0.2c-0.1-0.6-0.2-1.3-0.5-2c-0.7-1.9-0.9-3.7,0.2-5.7c0.5-1,0.1-2.6,0-3.9c-0.1-2.4-0.4-4.7-0.5-7.1
		c0.4-0.1,0.7-0.2,1.1-0.3c0.9,1.9,2,3.6,2.7,5.6c2,6.2,4.2,12.4,5.7,18.8c1.6,7.3,2.8,14.7,1.3,22.2c-0.2,1.1-0.2,2.1-0.4,3.2
		c-0.3,1.9-1.3,2.4-2.9,1.3c-2.3-1.5-4.6-3-6.7-4.7c-0.9-0.7-1.4-1.7-2.1-2.6c0.2-0.2,0.3-0.4,0.5-0.6c0.8,0.2,1.6,0.4,3,0.7
		c-1.3-1.5-2.3-2.5-3.1-3.6C601.7,179.9,601.5,179,601.1,178.2z M575.2,223.9c0.2-0.6,1.5-0.9,2.3-1.1c2.6-0.6,5.2-1.2,8.5-1.9
		c-1.3,3.9-2.4,7.1-3.5,10.3c-0.2,0.4-0.8,0.9-1.3,1c-2.9,0.6-5.8,1.1-9.6,1.8C573,230.2,573.9,227,575.2,223.9z"/>
	<path d="M489.5,673.3c-3.2,0.9-5.4,2.8-5.9,6.2c-0.4,3.1,1.3,5.6,3.8,7.1c2.2,1.3,4.8,2,7.6,3.1c-0.5,0.8-0.8,1.8-1.4,2.5
		c-3.8,4.7-9,5.9-14.6,5.3c-7-0.7-13-3.6-19.1-7.3c-11.8-7.1-22.1-15.7-30.3-25.9c3.2-5,6.6-9.6,9.2-14.6c2.7-5.2,3.7-10.9,2.3-17.3
		c11.6,0.4,22.7,0.8,33.3,1.2c-1.8-12-3.6-24.3-5.5-37.3c-0.9,1.7-1.7,2.6-2.1,3.8c-2.1,6.4-4,12.8-6.1,19.2
		c-0.3,0.8-1.3,1.8-2.1,1.9c-2.9,0.5-5.8,0.5-8.6,0.8c-8.3,0.8-16.7,1.8-25,2.6c-2.2,0.2-4.4,0-6.6,0c0,0.3-0.1,0.5-0.1,0.8
		c0.7,0.4,1.4,0.8,2.1,1.1c4,2,7.5,4.5,10,8.3c3.7,5.6,2,18.1-3.1,22.8c-0.9,0.8-1.7,1-2.5,0c-3.1-3.6-6.5-7.1-9.4-10.9
		c-2.6-3.4-4.7-7.2-7-10.8c-4.8-7.2-8-15.1-10.1-23c5.4-3.1,10.6-5.9,15.6-8.8c4.6-2.7,8.1-6.5,10.8-11.2c3.5-6.1,0.6-14.3-6-16.7
		c-5.7-2-10.9-0.8-16.2,1.9c-8.9,4.5-14.1,11.5-16.4,21.1c-1.1,4.6-0.9,9.1-0.4,13.6c0.1,0.8,0,2.1-0.5,2.5c-1.5,1.2-3.2,2.2-5,3.1
		c-6.4,3.2-10.6,8.7-14.5,14.3c-2.7,3.9-3.7,8.6-4.1,13.4c-0.4,5.7,0.6,10.9,3.8,15.7c4.6,6.8,11.3,10.8,19.1,12.5
		c7.9,1.7,16,2.6,23.9-0.1c2.8-1,5.6-2,8.4-3.2c1.4-0.6,2.2-0.4,3.2,0.8c1.5,1.9,3,3.8,4.9,5.3c5.2,3.9,10.5,7.7,16,11.3
		c3.2,2.1,6.8,3.5,10.1,5.6c5.1,3.2,10.9,4.4,16.5,6.2c6.9,2.1,13.9,3.5,21,1c2-0.7,3.7-2.2,5.5-3.3c7.5-4.1,10.8-14.5,4.8-21.5
		C496.6,673.6,492.7,672.4,489.5,673.3z M402.7,582.8c1.9-1.2,3.6-2.9,6.3-2c3.4,1.1,5.4,3.8,4.8,7.3c-1.4,7.2-4.9,13-11.7,16.5
		c-1.7,0.9-3.2,2.2-5.4,3.8c-0.4-5.1-1-9.3-1-13.6C395.8,589.8,398.3,585.7,402.7,582.8z M408.7,668.6c-5.9,0.9-11.9,1.3-17.4-1.4
		c-3.5-1.7-7.4-3.1-9.6-6.7c-0.2-0.3-0.5-0.7-0.9-0.9c-7-4.2-8.3-11.2-7.9-18.4c0.5-9.8,5.4-17,13.8-22
		c6.4,17.3,15.4,33.2,28.6,47.6C412.6,667.6,410.7,668.3,408.7,668.6z"/>
	<path d="M602,592.7c0.5,0.8,1.1,1.5,1.9,1.8c7.2,3.3,14.4,6.6,21.6,9.7c3.1,1.4,4,2.9,2.9,6.1c-0.1,0.5-0.4,0.9-0.4,1.4
		c-1.3,10.8-2.5,21.7-3.7,32.5c-0.3,3.2-0.3,6.4-0.5,10.4c-1.3-1.2-2.1-1.7-2.7-2.4c-3.2-4.1-6.5-8.2-9.5-12.5
		c-3.7-5.2-7.3-10.5-10.9-15.8c-0.3-0.5-0.4-1.2-0.5-1.8c-0.2-1.1-0.1-2.4-0.6-3.3c-2-3.1-4.3-6.1-6.3-9.2
		c-5.3-7.9-10.6-15.9-16-23.8c-0.6-0.9-1.2-1.6-1.9-2.5c-1.3,2.1-2.7,3.7-3.6,5.6c-2.6,5.7-5,11.6-7.4,17.3
		c-2.5,5.8-4.5,11.8-7.5,17.3c-4.8,8.6-10.2,16.9-15.8,26c-1-1.5-1.9-2.4-2.2-3.5c-0.7-2.5-1-5.2-1.6-7.8
		c-2.1-9.2-4.3-18.3-6.5-27.5c-1.5-6.3-1.5-6.4,4-9.6c3.3-1.9,6.8-3.4,10.1-5.3c1.7-1,3.1-2.4,4.7-3.6c-0.1-0.3-0.2-0.6-0.3-0.8
		c-18.2,3.3-36.6,2.2-55.8,2.1c1,0.9,1.4,1.3,1.9,1.6c3.2,1.8,6.5,3.7,9.7,5.5c1.8,1,3.7,1.9,5.4,3c1.2,0.8,2.8,1.7,3.4,2.9
		c2.6,6,5.1,12.1,7.1,18.4c3.4,10.6,6.4,21.3,9.5,31.9c1.2,4,2.4,8,3.6,11.9c0.7,2.4,1.5,4.7,2.4,7.5c5.6-12.2,10.6-24.1,16.5-35.5
		c5.9-11.4,12.6-22.3,19.1-33.6c0.7,0.5,1.1,0.6,1.3,0.9c5.6,7,11.4,13.9,16.7,21.1c3,4.1,5.1,8.9,8.9,12.5c1.4,1.3,2.7,2.7,4,4.1
		c3.7,4.3,6.9,9,9.9,14c3.2,5.3,7.2,10.2,10.8,15.3c0.3,0.4,0.5,1,0.7,1.5c0.3-0.2,0.5-0.3,0.8-0.5c0.4-4.3,0.6-8.6,1.4-12.8
		c3.4-18.8,6.9-37.5,10.5-56.2c0.1-0.6,0.4-1.4,0.8-1.7c3.2-2,6.6-3.8,9.8-5.8c3.1-1.9,6.2-3.9,9.3-5.9c-0.1-0.2-0.2-0.5-0.4-0.7
		C638.3,595.2,620.2,595.5,602,592.7z"/>
	<path d="M565.1,509.8c16.7,12.8,30.6,27.9,43.5,42.9c9.9-4,19.3-7.7,28.7-11.5c0-0.1,0-0.3,0-0.4c-3.3-0.2-6.6-0.6-9.9-0.4
		c-7.4,0.4-12.8-3.8-18.2-7.8c-2.3-1.7-4.6-3.3-6.8-5c-3.8-2.8-7.5-5.6-11.2-8.5c-2-1.6-3.6-3.7-5.6-5.3c-3.3-2.8-6.8-5.3-10.1-8
		c-1-0.8-1.3-1.6,0-2.6c2.3-1.8,4.4-3.8,6.8-5.4c5.4-3.8,10.7-7.6,16.4-10.9c4.5-2.6,7.9-6.9,13.2-8.1c3-0.7,6-2,8.8-3.3
		c3.7-1.7,7.3-3.7,10.9-5.6c-0.1-0.2-0.2-0.3-0.2-0.5c-15.2-0.6-30.5-1.2-46.2-1.8c1.2,0.7,2.1,1.2,3,1.7c2.9,1.8,5.9,3.7,8.8,5.6
		c1.1,0.7,1.1,1.5,0.1,2.4c-2,2-3.9,4.1-6.1,5.9c-6.9,6.1-14,12-21,18c-1.4,1.2-2.9,2.2-4.4,3.3c-0.3-0.1-0.5-0.2-0.8-0.3
		c1.2-27,3.6-53.8,6.4-81.1c-1.2,0.3-1.9,0.3-2.6,0.6c-5.8,2.6-11.6,5.3-17.4,7.8c-3.8,1.6-6.2,0.6-9.4-3c1-0.6,1.9-1.3,2.9-1.8
		c8.2-4.5,16.5-8.9,24.7-13.5c0.8-0.5,1.9-2.1,1.6-2.7c-0.6-1.4-2-0.9-3.2-0.3c-5.8,3.1-11.5,6.2-17.3,9.4c-3.5,1.9-7.1,3.9-10.8,6
		c-0.2-0.9-0.4-1.4-0.4-1.9c0.1-2.9,0.3-5.8,0.2-8.7c0-1-1.1-2-1.7-2.9c-0.6,0.9-1.5,1.7-1.6,2.6c-0.3,3.5-0.4,7-0.4,10.5
		c0,1.7-0.6,2.8-2,3.6c-1.3,0.7-2.8,1.3-3.9,2.3c-0.5,0.5-0.4,1.7-0.6,2.6c0.7,0.1,1.6,0.4,2.2,0.2c1.4-0.6,2.6-1.6,3.9-2.1
		c1-0.4,2.3-0.6,3.3-0.2c1.6,0.7,2.9,1.8,4.4,2.8c-1.2,0.7-2.2,1.3-3.9,2.3c4.4,1.6,8.1,3.2,11.9,4.4c2.1,0.7,3,1.7,3,4
		c0.2,15.9,0.5,31.8,0.8,47.7c0.1,3.7,0.4,7.3,0.4,11c-0.1,8.4-0.7,16.8-0.6,25.2c0,4.2-0.4,7.5-5.1,8.7c-0.2,0-0.3,0.2-0.4,0.3
		c-3.4,2-6.9,3.9-10.3,6c-0.8,0.5-1.4,1.2-2,1.6c13.7,0,27.2,0,40.8,0c-3-2.2-6.2-4.1-9.3-5.9c-2.6-1.5-4.5-3.2-4.1-6.7
		c0.3-2.2,0-4.5,0-6.7c0-4.9,0-9.8,0-14.6C564.6,511,564.8,510.5,565.1,509.8z"/>
	<path d="M852.9,582c7.3,0.6,14.1-1.4,20.4-5.1c4.8-2.8,8.5-6.9,12.4-10.7c3.3-3.2,5.3-7,6.5-11.3c2.6-10.1,3.5-20.4,1.9-30.7
		c-0.5-3.5,0.7-5.4,3.5-7.1c2.9-1.7,5.6-3.7,8.4-5.5c-0.1-0.2-0.2-0.5-0.2-0.7c-15.4,0.9-30.8,2.7-46.8,0.5c0.6,1,0.7,1.4,1,1.5
		c5.5,2.6,11,5.4,16.7,7.8c1.9,0.9,4.1,1.2,4.4,3.7c0.5,3.5,1.2,7.1,1.3,10.6c0.2,4.4-0.8,5.9-3.5,6.1c-6.1,0.5-12.1,0.6-18-1.7
		c-5.1-2-9.6-4.8-14-8.2c-7-5.4-9.5-12.9-11.4-20.7c-2.3-9.5,0.5-18.1,5.7-26c3.7-5.5,8.8-9.2,15.1-11.1c2.9-0.9,5.9-2,8.9-2.4
		c4.7-0.6,9.4-1.6,14.1,0.1c0.8,0.3,1.6,0.9,2,1.6c0.7,1.2,1.1,2.5,1.8,3.8c2.7,5.2,5.4,10.5,8.1,15.7c0.2,0.4,0.5,0.8,0.7,1.1
		c0-14.3,0-28.6,0-43c-0.2,0-0.3-0.1-0.5-0.1c-0.4,0.5-0.8,1-1.1,1.5c-2.3,3.9-4.6,7.7-6.8,11.6c-1.1,1.9-2.3,2.9-4.8,2.6
		c-3.5-0.4-7.1-0.5-10.6-0.6c-7.5-0.1-14.8,1.5-22,3.7c-7.5,2.3-13.4,6.8-18.4,12.6c-2.1,2.5-4.3,5.2-5.6,8.1
		c-5.3,11.6-1.9,22.7,3.2,33.3c3.4,7.1,9.1,12.2,15.8,16.2c3.2,1.9,6.4,4.3,9.9,5.1c6.1,1.3,12.5,1.7,18.8,2
		c3.4,0.2,6.8-0.6,10.1-0.9c2.4-0.2,3.3,0.8,2.9,3.2c-0.5,3.4-1,6.8-1.8,10.1c-1,4.2-3.2,7.9-6.7,10.5c-3.5,2.5-7.2,4.6-10.9,6.7
		c-3,1.7-6.3,1.4-9.4,0.2c-0.6-0.2-1.1-1.3-1.1-2c-0.1-2.2,0.4-4.5,0.2-6.7c-0.3-3.3-0.4-6.7-3.6-9.2c-2-1.5-3.9-2.8-6.3-1.7
		c-2.4,1.1-4.4,3-4.3,5.9c0.1,2.8,0.2,5.6,0.9,8.3C840.9,576.1,847.5,581.6,852.9,582z"/>
	<path d="M892.3,493.9c-0.1-0.2-0.3-0.4-0.4-0.6c0,0.2,0,0.3,0,0.5C892,493.8,892.1,493.9,892.3,493.9z"/>
	<path d="M917.2,638.7c-8.3,0.4-16.5,1.8-24.8,0.9c-3.4-0.3-6.8-0.5-10.2-0.6c-0.8,0-1.5,0.1-2.4,0.1c0.2,0.5,0.2,0.7,0.3,0.8
		c5.7,2.7,11.3,5.6,17,8.1c1.9,0.9,4.2,1.3,4.5,3.7c0.5,4.5,1,9.1,1,13.6c0,1-1.7,2.9-2.6,2.9c-5.3,0.1-10.7,0.3-15.8-0.8
		c-6.3-1.3-11.7-4.8-16.8-9c-7.1-5.7-9.7-13.3-11.4-21.5c-1.6-7.8-0.1-15.1,4.1-22c2.5-4.1,5.1-7.8,9.2-10.5
		c8.4-5.4,17.7-6.9,27.3-6.8c1.7,0,4.1,0.8,5,2.1c1.9,2.7,2.8,5.9,4.3,8.9c2.2,4.2,4.6,8.4,6.5,11.9c0-13.9,0-28.4,0-42.9
		c-0.3-0.1-0.6-0.1-0.9-0.2c-2.5,4.4-5,8.8-7.5,13.2c-1,1.9-2.2,3.3-4.7,2.8c-9.9-2.1-19.6-0.4-29.1,1.9c-9,2.2-16.7,6.9-22.4,14.4
		c-1.9,2.5-4.1,4.9-5.3,7.8c-5.6,13.4-1.8,25.8,5.6,36.9c6.6,9.9,16.1,16.8,28.5,18.7c6.8,1,13.6,1.3,20.4,0.4
		c6-0.8,6.8-1.2,5.8,5.7c-1.1,7.1-2.7,13.9-8.7,18.5c-4.1,3.1-8.5,5.9-13.6,6.9c-2.1,0.4-4.6-0.3-6.7-1.2c-0.6-0.3-0.2-2.9-0.2-4.4
		c0-1.3,0.3-2.7,0.1-4c-0.5-3.3-0.6-6.7-3.8-9.1c-2-1.5-4-2.6-6.3-1.6c-2.5,1.1-4,3.1-4.3,5.9c-0.7,5.9,0.9,11,5.4,14.7
		c2.5,2.1,5.6,4.1,8.6,4.5c7.1,0.9,13.8-1.1,20-4.7c4.6-2.7,8.2-6.4,12-10c5.9-5.5,8-12.6,9.1-20c1.1-7.9,1.7-15.9,0.3-23.9
		c-0.5-2.9,0.7-4.5,2.9-5.9c3.1-1.9,6.1-4,9.5-6.2C923.4,638.7,920.3,638.6,917.2,638.7z"/>
	<path d="M783,597.9c6.1,2.4,12.4,4.6,18.6,6.8c1.4,0.5,2.2,0.8,2.3,2.4c0.4,4.6,0.9,9.2,1.3,13.9c1.2,12.1,2.4,24.2,3.6,36.3
		c0.1,1-0.3,2-0.5,3.1c-0.3,0.1-0.6,0.2-1,0.4c-0.9-1.1-1.8-2.2-2.7-3.3c-0.3-0.4-0.7-0.7-1-0.9c-2.1-1.5-4.4-2.7-6.3-4.4
		c-5-4.4-9.7-9.2-14.7-13.6c-7-6.1-14.2-11.9-21.1-18.2c-5.6-5.1-10.6-10.7-16-16c-5.2-5.1-10.6-10.1-15.9-15.1
		c-0.9-0.9-2.1-1.5-3.4-2.4c-0.1,0.7-0.2,1.1-0.2,1.4c0.3,9,0.7,18,0.8,27c0.1,7.4-0.2,14.8-0.5,22.2c-0.3,8.6-0.9,17.3-1.3,25.9
		c-0.1,1.6-0.6,2.6-2,3.4c-3.6,2-7.2,4.2-10.7,6.4c-0.7,0.4-1.3,1.1-2,1.6c0.1,0.3,0.2,0.5,0.4,0.8c16.9-4.1,34.1-2.1,51.3-2.4
		c-0.4-0.6-0.8-1-1.2-1.2c-1.8-0.7-3.5-1.4-5.3-2c-4.3-1.3-8.5-2.7-12.9-3.7c-3.6-0.8-6.9-4-7.2-7.7c-0.6-7.3-2.3-14.5-2-22
		c0.2-4.2-1-8.4-1.4-12.6c-0.2-3.1,0-6.2,0-9.8c2.7,2,4.9,3.8,7.3,5.1c10.7,5.8,19.3,14.5,28.9,21.8c4.2,3.1,8,6.7,12,10
		c3.9,3.3,8,6.5,11.9,9.8c2.1,1.8,4.1,3.9,6.3,5.5c4.3,3.2,9,6,12.5,10.1c0.6,0.6,1.3,1.1,2.3,1.8c0.1-1.1,0.3-1.7,0.3-2.4
		c0.1-9.1,0.2-18.3,0.3-27.4c0.2-13.6,0.4-27.3,0.5-40.9c0-2.3,1.1-4,2.6-4.9c3.1-2,6.6-3.4,10-5.1c0.9-0.5,1.8-1.2,2.7-1.8
		c-18.6,0-36.9-0.3-55.2-2.2C777.2,595.2,780,596.8,783,597.9z"/>
	<path d="M747.1,512.9c4.3,3.2,8.2,6.9,12.4,10.3c4.1,3.4,8.2,6.7,12.3,10.1c2,1.7,3.8,3.7,5.9,5.2c4.5,3.2,9,6.3,12.8,10.4
		c0.5,0.5,1.2,0.9,2.1,1.5c0.1-1,0.2-1.7,0.2-2.3c0.2-9.6,0.3-19.3,0.4-28.9c0.2-13.1,0.4-26.1,0.4-39.2c0-2.3,1-4.1,2.7-5.1
		c3.2-1.9,6.6-3.4,10-5.1c0.9-0.5,1.8-1.2,2.4-1.6c-18.3-0.7-36.6-1.3-55.4-2c3.4,1.6,6.2,3.2,9.3,4.4c6,2.3,12,4.4,18.1,6.5
		c1.4,0.5,2.3,0.9,2.5,2.5c0.4,4.5,0.9,8.9,1.3,13.4c1.2,12.2,2.3,24.3,3.4,36.5c0.1,1.1-0.2,2.2-0.4,3.8c-1.2-0.8-2.1-1.1-2.5-1.8
		c-1.4-2.8-4.4-3.5-6.6-5.3c-0.5-0.4-1-0.9-1.5-1.3c-6.4-5.7-12.7-11.5-19.1-17.2c-5.7-5.1-11.7-9.9-17.2-15.1
		c-5.4-5.1-10.5-10.6-15.8-15.9c-5-4.9-10.1-9.7-15.2-14.4c-1.2-1.1-2.5-2-4.2-3.3c0,1.5,0,2.4,0,3.2c0.2,9.1,0.5,18.1,0.6,27.2
		c0,6-0.2,12.1-0.4,18.1c-0.4,9.5-0.9,19-1.4,28.4c0,0.8-0.4,2-1,2.4c-2.9,2-5.9,3.8-8.8,5.6c-1.6,1-3.3,1.9-4.9,2.8
		c0.1,0.3,0.2,0.7,0.4,1c17.1-3.7,34.4-2.2,51.7-2.4c-0.7-0.7-1.4-1.1-2.2-1.4c-1.6-0.6-3.2-1.3-4.9-1.8c-4.1-1.3-8.2-2.6-12.4-3.6
		c-4-0.9-7-4-7.4-8.1c-0.1-1.4-0.3-2.8-0.5-4.2c-0.6-4.5-1.3-9.1-1.7-13.6c-0.4-5-0.6-10.1-0.9-15.1c-0.2-3.5-0.3-7.1-0.5-11.2
		c2.8,2,4.8,3.7,7.1,5C729.1,497.1,737.6,505.7,747.1,512.9z"/>
	<path d="M385.8,475.3c2.9,0.9,4.3,3,5.2,5.6c0.3,1,0.7,2,1.2,3c1.8,3.7,3.6,7.3,5.3,11c3,6.7,6,13.4,9,20c0.2,0.5,0.8,0.9,1.1,1.3
		c0.9,1.3,2,2.4,2.6,3.8c3.2,6.7,6.2,13.4,9.3,20.2c0.9,2,1.9,4,2.8,6.1c1.1,2.4,2.1,4.8,3.3,7.6c0.5-0.9,0.7-1.2,0.9-1.5
		c3.1-6,6-12.2,9.3-18.1c4-7.1,8.5-14,12.7-21c1.9-3.3,3.4-6.8,5.3-10.1c3.5-6.1,7.2-12.1,10.8-18c0.9-1.5,2.5-2.7,3.3-4.2
		c2.4-4.7,6.5-7.3,11-9.4c2.2-1,4.1-2.6,6.6-4.3c-9.1,0-17.3,0.2-25.6,0c-8.2-0.2-16.5-0.8-24.7-1.3c0,0.3-0.1,0.5-0.1,0.8
		c2.1,1.2,4.1,2.4,6.3,3.5c4.3,2,8.7,3.8,12.9,5.9c2.7,1.3,3,2.9,1.5,5.5c-1.2,2.1-2.3,4.2-3.3,6.4c-1.4,3.3-2.5,6.7-4.1,9.9
		c-3.1,6.1-6.5,12.1-9.7,18.2c-2.8,5.4-5.5,10.8-8.2,16.3c-0.6,1.2-1.3,2.2-2.1,3.6c-1-1.9-2-3.6-2.8-5.3c-1.6-3.3-3.3-6.5-4.5-9.9
		c-2.4-6.7-4.6-13.5-6.8-20.3c-2.2-6.5-4.4-13.1-6.6-19.6c-0.6-1.8,0.1-2.8,1.7-3.6c1.9-1,3.7-2.2,5.6-3.2c3.7-2.1,7.4-4.1,11.1-6.2
		c1.3-0.7,2.4-1.7,3.6-2.6c-0.1-0.2-0.2-0.5-0.4-0.7c-2.6,0.3-5.3,0.5-7.9,0.8c-5.4,0.6-10.8,1.3-16.2,1.8c-1.6,0.2-3.3,0-5,0
		c-5.1,0-10.3,0-15.4,0.1c-2.8,0-5.7,0-8.5,0c-0.1,0.3-0.1,0.5-0.2,0.8c1.9,1.5,3.8,3.1,5.8,4.5C383,473.7,384.3,474.8,385.8,475.3z
		"/>
	<path d="M948.5,545c1-1.1,1.9-1.5,2.8-0.1c1,1.5,2.3,1.4,3.7,1.1c5.1-1.3,9.6-3.5,14.1-6.4c6-3.9,7.6-9.6,8.7-15.8
		c0.3-1.9,0.4-4.1-0.2-5.9c-2.8-8.9-10.1-14.1-17.1-19.4c-3.1-2.3-6.6-4.1-9.8-6.2c-3-2-4.8-5.3-5.7-8.5c-1.4-4.8-0.9-8,3.8-10.3
		c0.4-0.2,0.8-0.6,1.3-0.7c3.9-1.4,7.4-4,11.8-3.4c0.8,0.1,1.8,0.8,2.1,1.5c1.8,4.6,3.3,9.4,5.1,14c0.8,2,2.1,3.7,3.2,5.6
		c1.1-13.5,2.1-26.6,3.2-39.9c-0.5,0.4-1.1,0.8-1.5,1.3c-2.4,3.3-5,6.4-7.1,9.9c-1.3,2.1-2.6,2.8-5.2,2.6
		c-11.4-0.9-21.5,1.3-28.8,11.3c-6.6,8.9-3.4,18.5,4.6,24.6c3.7,2.9,8,5,12.1,7.3c4.8,2.8,9.8,5.3,13.4,9.9
		c3.9,5.1,3.2,13.3-1.4,17.5c-4.6,4.2-10.3,5.7-16,7c-4.1,0.9-8.6,0.3-12.9,0.2c-0.6,0-1.6-0.9-1.8-1.6c-1.9-4.9-3.7-9.9-5.6-14.9
		c-1.5-3.9-3.1-7.7-4.7-11.6c-0.2,0-0.4,0.1-0.6,0.1c-0.5,10.8-0.9,21.5-1.4,32.9c3.9,0,7.9,0.1,11.9,0c5.2-0.1,10.5-0.2,15.7-0.5
		C946.9,546.5,947.8,545.7,948.5,545z"/>
	<path d="M992.8,635.9c-4.9-5.4-10.8-9.3-16.7-13.2c-4-2.6-7.5-5.3-9.8-9.5c-1.8-3.4-1.9-9,0.8-10.8c4.6-3.1,9.5-5.8,15.4-5.7
		c0.7,0,1.7,0.8,2,1.5c0.8,2.1,1.2,4.4,2,6.4c1.8,4.4,3.8,8.7,5.7,13c0.2-0.1,0.4-0.2,0.7-0.3c1.1-13.1,2.1-26.1,3.2-39.4
		c-0.4,0.4-1,0.7-1.4,1.2c-2.5,3.3-5.1,6.6-7.3,10.1c-1.3,2-2.4,3.2-4.9,2.4c-0.7-0.2-1.5-0.2-2.2-0.2c-10.5,0-19.8,2.2-26.7,11.4
		c-6.8,9.2-3.4,18.6,4.3,24.7c3.4,2.7,7.4,4.7,11.2,6.9c5.4,3.1,11.2,5.7,15,11.1c1.7,2.4,3.1,10.1,1.5,12.4
		c-2.2,3.1-4.6,6.4-8.3,7.9c-7.5,3.1-15.2,5.5-23.5,3.9c-0.9-0.2-1.9-1-2.3-1.8c-1.2-2.7-2.2-5.5-3.3-8.3
		c-2.1-5.6-4.3-11.2-6.4-16.8c-0.2-0.4-0.6-0.8-1.2-1.6c-0.5,11.3-0.9,22-1.4,33c6.1,0.2,12.2,0.6,18.2,0.6c3.1,0,6.3-0.4,9.4-0.8
		c0.8-0.1,1.7-0.8,2.3-1.5c1-1.2,2-1.5,2.8-0.2c1.1,1.6,2.5,1.5,3.9,1.1c1.5-0.4,3-1.2,4.5-1.5c5.3-1,9.9-4.2,12.9-8
		C999.9,655.3,1000.9,644.9,992.8,635.9z"/>
	<path d="M499.3,483.3c0.2,3,0.3,6,0.5,8.9c0.7,13.5,1.3,27.1,2,40.6c0.1,2.1-0.8,3-2.6,3.9c-4.8,2.5-9.4,5.4-14.1,8.1
		c0.1,0.2,0.2,0.3,0.4,0.5c14.5-0.4,29-0.8,43.5-1.1c0.1-0.2,0.1-0.4,0.2-0.6c-1.3-0.7-2.4-1.6-3.8-2.2c-3.8-1.5-7.6-3-11.4-4.3
		c-1.7-0.6-2.5-1.5-2.5-3.4c0.2-9.7,0-19.5,0.6-29.2c0.7-11.4,2.1-22.7,3-34c0.2-1.8-0.3-3.6-0.4-5.5c-5.9,1.3-27.3,10.9-28.6,13
		c3.3,0.7,6.5,1.5,9.7,2.1C497.8,480.5,499.2,481.1,499.3,483.3z"/>
	<path d="M653.2,536.8c-5.1,1.9-9.6,5.1-13.5,8.6c14.4-0.4,28.9-0.8,43.3-1.1c-1-1.3-2.1-2.2-3.4-2.7c-4-1.6-8.1-3-12.1-4.7
		c-0.8-0.4-1.9-1.5-1.9-2.4c-0.1-7.4-0.3-14.8,0.2-22.2c1-14.1,2.4-28.2,3.5-42.3c0.1-1.6-0.3-3.2-0.6-5.4
		c-9.9,4.3-19.2,8.3-28.6,12.3c0,0.4,0.1,0.8,0.1,1.1c3.3,0.7,6.5,1.6,9.8,2.2c1.9,0.3,3.2,1.1,3.3,3c0.2,2.9,0.3,5.8,0.5,8.7
		c0.7,13.6,1.3,27.3,2,40.9C656,534.9,655.2,536,653.2,536.8z"/>
	<path d="M699.9,668.8c-3.8-1.6-7.7-3-11.6-4.4c-1.4-0.5-2.2-1.2-2.1-2.9c0-4.5-0.2-9-0.1-13.5c0.4-17.1,1.9-34.1,3.9-51
		c0.2-1.5-0.4-3-0.7-5c-9.9,4.3-19.2,8.3-28.5,12.3c0,0.3,0.1,0.7,0.1,1c3.3,0.8,6.7,1.6,10,2.3c1.9,0.4,3,1.2,3.2,3.2
		c0.2,3.3,0.5,6.6,0.6,9.9c0.6,13.3,1.2,26.6,1.9,39.9c0.1,1.8-0.7,2.6-2.2,3.4c-4.9,2.6-9.6,5.4-14.4,8.2c0.1,0.2,0.2,0.4,0.4,0.5
		c14.5-0.4,29-0.7,43.4-1.1C702.6,670.3,701.3,669.3,699.9,668.8z"/>
	<path d="M514.8,309.6c12.5,3.9,25,7.8,37.5,11.7c1.2,0.4,2.6,0.7,3.9,0.8c0.5,0,1.3-0.6,1.4-1.1c0.1-0.5-0.3-1.2-0.7-1.6
		c-0.5-0.4-1.1-0.7-1.8-0.9c-7.5-2.3-15-4.6-22.5-7c-1.2-0.4-2.7-1.2-3-2.2c-1-3.3-1.6-6.8-2.5-10.7c0.4-0.7,0.8-1.8,1.5-2.5
		c1.9-1.9,4-3.5,5.8-5.5c1.3-1.4,2.7-1.7,4.5-1.1c5.8,1.9,11.7,3.7,17.5,5.6c2.1,0.7,4.2,1.4,6.4,1.8c0.8,0.1,1.8-0.6,2.7-1
		c-0.7-0.8-1.2-2.1-2-2.3c-6.6-2.1-13.3-4.1-20-6.1c-6.6-2.1-13.2-4.2-19.9-6.3c-2.9-0.9-4.3,0.4-3.5,3.2c0.8,3.3,1.9,6.5,2.5,9.8
		c0.2,1.1-0.4,2.8-1.2,3.7c-2.3,2.5-5,4.6-7.5,6.9C511.1,307.5,511.3,308.5,514.8,309.6z M531.8,287.4c0,0.3,0,0.6,0,1
		c-1.5,1.4-3,2.8-4.5,4.1c-0.3,0.3-1.5,0.1-1.6-0.1c-0.6-2.2-1-4.4-1.6-7.3C527.1,286.1,529.4,286.8,531.8,287.4z M523.9,300.5
		c0.7,3.2,1.2,5.7,1.9,8.9c-2.9-0.9-5.4-1.6-8.6-2.6C519.6,304.5,521.4,302.8,523.9,300.5z"/>
	<path d="M802.1,273.2c-0.5,0.3-0.8,1.6-0.6,2.2c0.4,1,1.2,1.3,2.4,0.5c2.5-1.6,5.2-3,7.8-4.4c0.7-0.4,1.6-0.6,2.4-0.9
		c0.2,0.6,0.3,0.8,0.3,1c0,7.9-0.2,15.8-0.1,23.7c0,1.3-1.1,3.7,1.3,3.9c2.8,0.2,1.9-2.5,2-4c0.2-5.2,0-10.5,0-15.7
		c0-2.3,0.2-4.6,0.4-7.6c7.2,4.2,13.7,8.1,20.3,11.8c1,0.6,2.8,1.3,3.3,0.9c0.9-0.7,1.3-2.3,1.4-3.5c0.1-8.8,0.1-17.7,0-26.5
		c0-3.6-1.2-4.2-4.4-2.4c-8.9,5.1-17.8,10.1-26.6,15.2C808.6,269.2,805.3,271.2,802.1,273.2z M820.4,266.5
		c5.6-3.2,11.2-6.4,16.8-9.6c0.6-0.3,1.3-0.6,2.2-0.9c0,8.1,0,15.8,0,24.2c-2.3-1.3-4-2.3-5.8-3.3c-4.4-2.5-8.8-5.1-13.1-7.7
		C818.6,268.2,818.6,267.5,820.4,266.5z"/>
	<path d="M510.6,355.1c1,0,2,0,3,0.1c11.8,0.8,23.7,1.6,35.5,2.4c1.4,0.1,2.8,0.1,4.2,0c0.7-0.1,1.2-0.8,1.9-1.2
		c-0.5-0.6-0.9-1.4-1.6-1.9c-0.5-0.3-1.3-0.4-1.9-0.4c-8-0.4-16.1-0.7-24.1-1.1c-4-0.2-8-0.5-11.9-0.8c-0.8-0.1-1.5-0.3-2.7-0.6
		c1.9-3,3.5-5.9,5.5-8.4c1.3-1.7,1.3-3,0.3-4.7c-1.5-2.7-2.8-5.6-4.2-8.4c0.1-0.3,0.2-0.5,0.4-0.8c5.1,0.3,10.2,0.6,15.3,0.9
		c8.1,0.5,16.2,1,24.4,1.3c0.8,0,1.6-1,2.4-1.5c-0.8-0.6-1.5-1.7-2.4-1.8c-5-0.5-10.1-0.8-15.1-1c-9-0.5-18.1-0.9-27.1-1.3
		c-2.5-0.1-3.2,0.9-2.2,3.2c1.5,3.1,3,6.1,4.6,9.1c1,1.8,0.9,3.3-0.4,5c-2,2.7-3.8,5.7-5.6,8.6C507.4,353.9,508.1,355,510.6,355.1z"
		/>
	<path d="M832.7,429.6c0.7-0.4,2.1-0.1,2.9,0.4c3.4,2,6.7,4.3,10.1,6.4c0.5,0.3,1.8,0.1,2-0.3c0.3-0.6,0.1-1.6-0.2-2.2
		c-0.3-0.6-1.1-1-1.7-1.4c-11.5-7.6-23-15.1-34.6-22.6c-0.6-0.4-1.7-0.1-2.6-0.2c0.3,1,0.3,2.4,0.9,2.9c3.1,2.3,6.3,4.3,9.5,6.4
		c3.6,2.4,7.3,4.9,11.1,7.4c-0.4,0.6-0.5,0.9-0.7,1c-7,3.5-14,7.1-21.1,10.5c-0.8,0.4-2.1,0-3-0.5c-2.7-1.6-5.2-3.6-8-5.1
		c-0.8-0.5-2.2,0-3.3,0c0.4,0.9,0.8,1.7,1.3,2.6c0.2,0.3,0.6,0.5,1,0.8c11.5,7.5,22.9,15.1,34.4,22.5c0.7,0.4,1.9,0,2.8,0
		c-0.4-1-0.5-2.3-1.2-2.8c-4.3-3.1-8.8-5.9-13.3-8.8c-2.7-1.8-5.3-3.6-8.1-5.5c0.7-0.6,1.1-1,1.5-1.2
		C819.2,436.3,825.9,432.9,832.7,429.6z"/>
	<path d="M778.9,248.5c1-0.1,2.2,0.1,2.9-0.3c1.6-1.1,3-2.6,4.5-3.9c4.6-4.3,9.3-8.5,14.1-12.9c0.5,0.7,0.9,1.2,1,1.7
		c0.8,3.4,1.4,6.8,2.2,10.2c1,4.7,2.1,9.4,3.3,14c0.2,0.7,1.3,1.2,2,1.8c0.4-0.8,1.3-1.7,1.2-2.4c-0.3-2.6-0.9-5.2-1.5-7.8
		c-1.5-6.4-3-12.9-4.4-19.3c-0.2-0.7,0.3-1.8,0.9-2.4c1.7-1.7,3.5-3.3,5.3-4.9c1.1-1,1.8-0.7,2.1,0.7c1,4.8,2,9.6,3,14.3
		c0.7,3.3,1.5,6.6,2.5,9.9c0.2,0.7,1.4,1,2.1,1.5c0.4-0.7,0.9-1.4,1-2.2c0.1-1-0.1-2-0.3-3c-1.9-8.5-3.9-16.9-5.9-25.4
		c-0.5-2.1-1.8-2.8-3.5-1.4c-2.1,1.7-4,3.5-5.9,5.3c-8.5,7.9-17.1,15.8-25.5,23.8C779,246.3,779.1,247.6,778.9,248.5z"/>
	<path d="M551.1,380.6c2.4-0.7,2.6-1.8,1-3.7c-2.9-3.2-5.7-6.4-8.7-9.6c-2-2.1-3.6-1.7-4.5,1c-0.9,2.6-1.8,5.1-2.6,7.7
		c-0.5,1.7-1.3,1.7-2.4,0.5c-1.7-1.9-3.4-3.9-5.1-5.8c-2.3-2.5-3.6-2.3-4.8,0.8c-1.5,4-2.7,8-4,12c-0.8,2.5-0.3,3.2,2.5,3.1
		c0.6-0.1,1.3-0.1,2.1-0.3c5.2-1,10.4-2,15.5-3.1C543.7,382.4,547.4,381.6,551.1,380.6z M541.8,370.8c2.2,2.5,3.9,4.5,6.1,7
		c-3.3,0.7-5.8,1.3-9,2C539.9,376.7,540.7,374.1,541.8,370.8z M532.2,381.1c-2.5,0.5-5,1-8.2,1.6c0.9-3,1.7-5.4,2.6-8.5
		c2.7,1.7,4,4.2,5.8,6C532.3,380.5,532.2,380.8,532.2,381.1z"/>
	<path d="M531,267.6c8.4,5.1,16.7,10.2,25.1,15.3c3.5,2.2,7.1,4.4,10.7,6.4c0.6,0.3,1.7-0.1,2.6-0.2c-0.3-0.9-0.5-1.8-0.8-2.6
		c-0.1-0.3-0.7-0.5-1-0.7c-8.2-5-16.4-10-24.6-15c-2.9-1.7-5.7-3.5-8.8-5.5c0.8-0.6,1.1-1.1,1.6-1.3c2.9-1.6,5.8-3.2,8.7-4.8
		c4.1-2.3,8.3-4.5,12.4-6.9c0.8-0.4,1.6-1.9,1.4-2.6c-0.6-1.7-2-0.8-3.1-0.3c-0.2,0.1-0.3,0.1-0.5,0.2c-7.9,4.3-15.7,8.6-23.6,13
		C527.9,264.4,527.9,265.7,531,267.6z"/>
	<path d="M850.9,400.8c0.4,1.7,1.8,2.3,3,1.2c3.8-3.4,7.4-6.9,11-10.5c1.1-1.1,0.6-2.5-0.8-2.9c-5.4-1.7-10.8-3.3-16.1-4.9
		c-5-1.5-10-2.9-15-4.3c-3.7-1.1-7.3-2.1-11.5-3.3c-0.4,0.4-1.5,0.8-1.7,1.5c-0.2,0.4,0.8,1.4,1.4,1.9c0.3,0.3,0.9,0.3,1.4,0.5
		c7.6,2.2,15.3,4.3,22.9,6.7c1.1,0.3,2.2,1.7,2.5,2.9C849,393.2,849.8,397,850.9,400.8z M860.5,391.1c-2.6,2.5-4.6,4.3-7,6.5
		c-0.8-3.2-1.4-5.7-2.2-9C854.5,389.4,857.1,390.1,860.5,391.1z"/>
	<path d="M650.9,449.7c1.7,2.6,3.8,4.8,7.4,4.5c4.1-0.3,7.1-2.3,8.8-5.9c1.4-2.9-0.2-8.2-2.6-9.7c-2.7-1.7-9.9-1.4-11.8,0.6
		c-2.1,2.1-2.4,4.7-0.5,6.1C650.4,446.4,649.8,447.9,650.9,449.7z"/>
	<path d="M496.9,449.5c1.5,2.7,3.6,4.9,7.3,4.7c4.2-0.3,7.3-2.3,9.1-5.9c1.4-2.8-0.3-8.2-2.7-9.7c-2.7-1.7-9.6-1.3-11.6,0.5
		c-2.2,2.1-2.5,4.8-1.5,5.5C497.1,446.5,496.3,448.4,496.9,449.5z"/>
	<path d="M671.4,576.8c1.4,2.9,4.6,4.9,7.5,4.7c3.7-0.2,8.2-3.2,9-6c1-3.2-0.4-8-2.7-9.5c-2.3-1.5-9.5-1.4-11.5,0.2
		c-2.3,1.9-2.9,4.9-0.7,6.5C671.1,573.6,670.6,575.1,671.4,576.8z"/>
	<path d="M837.3,331.5c1.7,0.7,2.1-0.8,2.5-2c1.7-5.4,3.3-10.8,5-16.2c0.9-2.7,1.8-5.4,2.8-8.5c0.9,0.8,1.4,1.2,1.9,1.7
		c5.3,5.7,10.6,11.4,16,17.1c0.9,0.9,1.9,1.9,3.2,0.7c1.3-1.2,0.1-2.1-0.7-2.9c-2.6-2.9-5.2-5.8-7.9-8.7c-3.7-4-7.4-8.1-11.2-12.1
		c-1.8-1.9-3.3-1.6-4,0.8c-2.9,9.2-5.8,18.5-8.5,27.8C836.1,330,836.7,331.3,837.3,331.5z"/>
	<path d="M836.6,367.5c-0.4,0.7,0.1,1.9,0.2,2.9c0.9-0.4,1.9-0.7,2.7-1.2c0.3-0.2,0.4-0.7,0.6-1.1c1.6-2.5,3.2-5,5.3-8
		c2.1,3.8,3.7,7,5.5,10c0.4,0.6,1.7,1.3,2.3,1.1c1.2-0.4,1.1-1.5,0.5-2.7c-1.7-3.1-3.1-6.4-4.9-9.5c-1.1-1.9-0.8-3.4,0.2-5.1
		c1.6-2.5,3.4-4.9,4.9-7.5c0.7-1.2,2.9-2.5,0.7-3.9c-2.1-1.4-2.8,0.8-3.6,2.1c-1.7,2.5-3.3,5.1-5.1,7.9c-0.7-0.9-1.1-1.3-1.3-1.8
		c-1.3-2.5-2.6-5-4-7.4c-0.6-1-1.2-2.7-2.7-1.6c-0.6,0.4-0.6,2.3-0.2,3.3c1.4,3.2,3.2,6.2,4.8,9.2c0.8,1.5,0.8,2.7-0.2,4.1
		C840.2,361.4,838.3,364.4,836.6,367.5z"/>
	<path d="M685.5,291.4c0.1-2.7,0-5.4,0-8c-0.3,0-0.5,0.1-0.8,0.1c0,0.1-0.1,0.1-0.1,0.2c-0.6,8.5-1.3,17.1-4.2,25.3
		c-0.2,0.5,0.4,1.7,1,2.1c1.9,1.4,4,2.8,6.1,3.9c0.8,0.4,2.1,0.5,2.9,0.1c2.2-1.1,4.3-2.5,6.3-4c0.5-0.4,1.1-1.6,0.9-2.2
		c-3.1-8.8-3.7-18-4.8-27.3c0,4.2,0,8.4,0,12.9c-1.7,0-3,0-4.2,0C685.4,294.5,685.4,294.5,685.5,291.4z"/>
	<path d="M659.8,254.9c-3.2-2-6.3-4-9.4-6.2c-3.1-2.2-6-1.9-9,0.2c-0.7,0.5-1.5,1.1-2.2,1.7c-1.4,1.3-2.7,1.4-4.2,0.3
		c-0.4-0.3-0.9-0.6-1.4-0.9c1.6,3.2,3.5,3.6,6.1,1.7c0.7-0.5,1.3-1.1,1.9-1.6c3-2.3,5.2-2.3,8.4-0.3c4.9,3,9.7,6.1,14.6,9
		c4.2,2.5,8.8,3.3,13.7,2.5c0.5-0.1,1-0.4,1.5-0.6c0-0.2-0.1-0.4-0.1-0.6C672.1,262,665.9,258.7,659.8,254.9z"/>
	<path d="M713.1,259.2c3.9-2.2,7.7-4.7,11.5-7c5.7-3.5,6.7-6.4,14.1-0.1c0.2,0.2,0.5,0.4,0.8,0.5c1.9,0.9,4.2-0.2,4.9-2.3
		c-3.8,1.8-3.8,1.8-7.5-0.9c-3.6-2.6-5.7-2.7-9.6-0.3c-5.2,3.2-10.3,6.5-15.5,9.5c-3.7,2.1-7.8,2.8-12.1,2c-0.4-0.1-0.9,0-1.3,0
		c0,0.1-0.1,0.3-0.1,0.4c0.4,0.2,0.8,0.4,1.2,0.5C704.4,262.5,708.9,261.5,713.1,259.2z"/>
	<path d="M759.8,231.4c-4.1,5.7-8.5,11.8-12.7,17.6C751.3,247.2,760.5,233.9,759.8,231.4z"/>
	<path d="M630.9,248.8c-4.1-5.6-8.4-11.5-12.6-17.2C618.3,235.1,627.5,247.6,630.9,248.8z"/>
	<path d="M690.7,346.7c-0.1-0.7-1-1.2-1.6-1.8c-0.6,0.6-1.5,1.2-1.7,1.9c-1.5,6.9-4.6,12.8-9.7,17.6c-1.1,1-1.2,1.9-0.7,3.3
		c2,5.1,4.2,10.2,5.8,15.4c1.8,6,3,12.1,4.5,18.1c0.1,0.4,0.3,0.8,0.5,1.1c0.2,0.4,0.5,0.7,0.7,1.1l0,0v0c0.2-0.2,0.4-0.3,0.5-0.4
		c0.6-0.4,1.2-0.8,1.5-1.4c0.6-1.1,0.9-2.3,1.3-3.5c2.8-9.3,5.5-18.6,8.2-27.9c0.4-1.3,0.9-2.5,1.5-4c-0.3-0.4-0.6-1-1-1.4
		C695.4,359.8,692.1,353.8,690.7,346.7z"/>
</g>
</svg>
